<mxfile host="app.diagrams.net" modified="2024-03-11T12:19:13.156Z" agent="Mozilla/5.0 (Windows NT 10.0; Win64; x64) AppleWebKit/537.36 (KHTML, like Gecko) Chrome/122.0.0.0 Safari/537.36" etag="-E00H1v5jeT6WtwwGYo5" version="24.0.1" type="device">
  <diagram name="Strona-1" id="Iq1txkXJfPX7Zm2s_XGw">
    <mxGraphModel dx="1687" dy="878" grid="1" gridSize="10" guides="1" tooltips="1" connect="1" arrows="1" fold="1" page="1" pageScale="1" pageWidth="827" pageHeight="1169" math="0" shadow="0">
      <root>
        <mxCell id="0" />
        <mxCell id="1" parent="0" />
        <mxCell id="SICG4Mnr6VeIpaEl5emT-1" style="edgeStyle=orthogonalEdgeStyle;rounded=0;orthogonalLoop=1;jettySize=auto;html=1;exitX=1;exitY=0.5;exitDx=0;exitDy=0;entryX=0;entryY=0.5;entryDx=0;entryDy=0;" edge="1" parent="1" source="SICG4Mnr6VeIpaEl5emT-2" target="SICG4Mnr6VeIpaEl5emT-8">
          <mxGeometry relative="1" as="geometry" />
        </mxCell>
        <mxCell id="SICG4Mnr6VeIpaEl5emT-2" value="Выбор товара" style="rounded=1;whiteSpace=wrap;html=1;arcSize=40;fontColor=#000000;fillColor=#ffffc0;strokeColor=#ff0000;" vertex="1" parent="1">
          <mxGeometry x="294" y="160" width="120" height="40" as="geometry" />
        </mxCell>
        <mxCell id="SICG4Mnr6VeIpaEl5emT-3" value="Работник склада" style="text;html=1;align=center;verticalAlign=middle;whiteSpace=wrap;rounded=0;" vertex="1" parent="1">
          <mxGeometry x="150" y="50" width="60" height="30" as="geometry" />
        </mxCell>
        <mxCell id="SICG4Mnr6VeIpaEl5emT-4" value="Организация" style="text;html=1;align=center;verticalAlign=middle;whiteSpace=wrap;rounded=0;" vertex="1" parent="1">
          <mxGeometry x="510" y="50" width="60" height="30" as="geometry" />
        </mxCell>
        <mxCell id="SICG4Mnr6VeIpaEl5emT-5" value="Клиент" style="text;html=1;align=center;verticalAlign=middle;whiteSpace=wrap;rounded=0;" vertex="1" parent="1">
          <mxGeometry x="324" y="50" width="60" height="30" as="geometry" />
        </mxCell>
        <mxCell id="SICG4Mnr6VeIpaEl5emT-6" style="edgeStyle=orthogonalEdgeStyle;rounded=0;orthogonalLoop=1;jettySize=auto;html=1;exitX=0.5;exitY=1;exitDx=0;exitDy=0;entryX=0.5;entryY=0;entryDx=0;entryDy=0;" edge="1" parent="1" source="SICG4Mnr6VeIpaEl5emT-8" target="SICG4Mnr6VeIpaEl5emT-13">
          <mxGeometry relative="1" as="geometry">
            <mxPoint x="540" y="240" as="targetPoint" />
          </mxGeometry>
        </mxCell>
        <mxCell id="SICG4Mnr6VeIpaEl5emT-7" value="[Поставка возможна]" style="edgeLabel;html=1;align=center;verticalAlign=middle;resizable=0;points=[];" vertex="1" connectable="0" parent="SICG4Mnr6VeIpaEl5emT-6">
          <mxGeometry x="-0.1935" y="1" relative="1" as="geometry">
            <mxPoint as="offset" />
          </mxGeometry>
        </mxCell>
        <mxCell id="SICG4Mnr6VeIpaEl5emT-8" value="Определение наличия товаров" style="rounded=1;whiteSpace=wrap;html=1;arcSize=40;fontColor=#000000;fillColor=#ffffc0;strokeColor=#ff0000;" vertex="1" parent="1">
          <mxGeometry x="480" y="160" width="120" height="40" as="geometry" />
        </mxCell>
        <mxCell id="SICG4Mnr6VeIpaEl5emT-9" style="edgeStyle=orthogonalEdgeStyle;rounded=0;orthogonalLoop=1;jettySize=auto;html=1;exitX=0.5;exitY=1;exitDx=0;exitDy=0;" edge="1" parent="1" source="SICG4Mnr6VeIpaEl5emT-13">
          <mxGeometry relative="1" as="geometry">
            <mxPoint x="540" y="310" as="targetPoint" />
          </mxGeometry>
        </mxCell>
        <mxCell id="SICG4Mnr6VeIpaEl5emT-10" value="[Да]" style="edgeLabel;html=1;align=center;verticalAlign=middle;resizable=0;points=[];" vertex="1" connectable="0" parent="SICG4Mnr6VeIpaEl5emT-9">
          <mxGeometry x="-0.1524" y="2" relative="1" as="geometry">
            <mxPoint x="-2" as="offset" />
          </mxGeometry>
        </mxCell>
        <mxCell id="SICG4Mnr6VeIpaEl5emT-11" style="edgeStyle=orthogonalEdgeStyle;rounded=0;orthogonalLoop=1;jettySize=auto;html=1;exitX=1;exitY=0.5;exitDx=0;exitDy=0;entryX=1;entryY=0.5;entryDx=0;entryDy=0;" edge="1" parent="1" source="SICG4Mnr6VeIpaEl5emT-13" target="SICG4Mnr6VeIpaEl5emT-18">
          <mxGeometry relative="1" as="geometry">
            <mxPoint x="680" y="800" as="targetPoint" />
            <Array as="points">
              <mxPoint x="690" y="260" />
              <mxPoint x="690" y="935" />
            </Array>
          </mxGeometry>
        </mxCell>
        <mxCell id="SICG4Mnr6VeIpaEl5emT-12" value="[Нет]" style="edgeLabel;html=1;align=center;verticalAlign=middle;resizable=0;points=[];" vertex="1" connectable="0" parent="SICG4Mnr6VeIpaEl5emT-11">
          <mxGeometry x="-0.8099" relative="1" as="geometry">
            <mxPoint as="offset" />
          </mxGeometry>
        </mxCell>
        <mxCell id="SICG4Mnr6VeIpaEl5emT-13" value="" style="shape=rhombus;perimeter=rhombusPerimeter;whiteSpace=wrap;html=1;align=center;" vertex="1" parent="1">
          <mxGeometry x="525" y="250" width="30" height="20" as="geometry" />
        </mxCell>
        <mxCell id="SICG4Mnr6VeIpaEl5emT-14" style="edgeStyle=orthogonalEdgeStyle;rounded=0;orthogonalLoop=1;jettySize=auto;html=1;exitX=0.5;exitY=1;exitDx=0;exitDy=0;" edge="1" parent="1" source="SICG4Mnr6VeIpaEl5emT-15" target="SICG4Mnr6VeIpaEl5emT-17">
          <mxGeometry relative="1" as="geometry" />
        </mxCell>
        <mxCell id="SICG4Mnr6VeIpaEl5emT-15" value="Создать заказ" style="rounded=1;whiteSpace=wrap;html=1;arcSize=40;fontColor=#000000;fillColor=#ffffc0;strokeColor=#ff0000;" vertex="1" parent="1">
          <mxGeometry x="480" y="310" width="120" height="40" as="geometry" />
        </mxCell>
        <mxCell id="SICG4Mnr6VeIpaEl5emT-16" style="edgeStyle=orthogonalEdgeStyle;rounded=0;orthogonalLoop=1;jettySize=auto;html=1;exitX=0;exitY=0.5;exitDx=0;exitDy=0;entryX=1;entryY=0.5;entryDx=0;entryDy=0;" edge="1" parent="1" source="SICG4Mnr6VeIpaEl5emT-17" target="SICG4Mnr6VeIpaEl5emT-21">
          <mxGeometry relative="1" as="geometry" />
        </mxCell>
        <mxCell id="SICG4Mnr6VeIpaEl5emT-17" value="Оформить счет" style="rounded=1;whiteSpace=wrap;html=1;arcSize=40;fontColor=#000000;fillColor=#ffffc0;strokeColor=#ff0000;" vertex="1" parent="1">
          <mxGeometry x="480" y="400" width="120" height="40" as="geometry" />
        </mxCell>
        <mxCell id="SICG4Mnr6VeIpaEl5emT-18" value="" style="ellipse;html=1;shape=endState;fillColor=#000000;strokeColor=#ff0000;" vertex="1" parent="1">
          <mxGeometry x="525" y="920" width="30" height="30" as="geometry" />
        </mxCell>
        <mxCell id="SICG4Mnr6VeIpaEl5emT-19" style="edgeStyle=orthogonalEdgeStyle;rounded=0;orthogonalLoop=1;jettySize=auto;html=1;exitX=0.5;exitY=1;exitDx=0;exitDy=0;entryX=0.5;entryY=0;entryDx=0;entryDy=0;" edge="1" parent="1" source="SICG4Mnr6VeIpaEl5emT-21" target="SICG4Mnr6VeIpaEl5emT-26">
          <mxGeometry relative="1" as="geometry" />
        </mxCell>
        <mxCell id="SICG4Mnr6VeIpaEl5emT-20" value="[Счет оплачен]" style="edgeLabel;html=1;align=center;verticalAlign=middle;resizable=0;points=[];" vertex="1" connectable="0" parent="SICG4Mnr6VeIpaEl5emT-19">
          <mxGeometry x="-0.35" relative="1" as="geometry">
            <mxPoint as="offset" />
          </mxGeometry>
        </mxCell>
        <mxCell id="SICG4Mnr6VeIpaEl5emT-21" value="Оплатить счет" style="rounded=1;whiteSpace=wrap;html=1;arcSize=40;fontColor=#000000;fillColor=#ffffc0;strokeColor=#ff0000;" vertex="1" parent="1">
          <mxGeometry x="294" y="400" width="120" height="40" as="geometry" />
        </mxCell>
        <mxCell id="SICG4Mnr6VeIpaEl5emT-22" style="edgeStyle=orthogonalEdgeStyle;rounded=0;orthogonalLoop=1;jettySize=auto;html=1;exitX=0;exitY=0.5;exitDx=0;exitDy=0;entryX=0;entryY=0.5;entryDx=0;entryDy=0;" edge="1" parent="1" source="SICG4Mnr6VeIpaEl5emT-26" target="SICG4Mnr6VeIpaEl5emT-28">
          <mxGeometry relative="1" as="geometry" />
        </mxCell>
        <mxCell id="SICG4Mnr6VeIpaEl5emT-23" value="[Нет]" style="edgeLabel;html=1;align=center;verticalAlign=middle;resizable=0;points=[];" vertex="1" connectable="0" parent="SICG4Mnr6VeIpaEl5emT-22">
          <mxGeometry x="-0.515" y="2" relative="1" as="geometry">
            <mxPoint as="offset" />
          </mxGeometry>
        </mxCell>
        <mxCell id="SICG4Mnr6VeIpaEl5emT-24" style="edgeStyle=orthogonalEdgeStyle;rounded=0;orthogonalLoop=1;jettySize=auto;html=1;exitX=1;exitY=0.5;exitDx=0;exitDy=0;entryX=0;entryY=0.5;entryDx=0;entryDy=0;" edge="1" parent="1" source="SICG4Mnr6VeIpaEl5emT-26" target="SICG4Mnr6VeIpaEl5emT-31">
          <mxGeometry relative="1" as="geometry">
            <mxPoint x="530" y="489.66666666666674" as="targetPoint" />
          </mxGeometry>
        </mxCell>
        <mxCell id="SICG4Mnr6VeIpaEl5emT-25" value="[Заказ оплачен]" style="edgeLabel;html=1;align=center;verticalAlign=middle;resizable=0;points=[];" vertex="1" connectable="0" parent="SICG4Mnr6VeIpaEl5emT-24">
          <mxGeometry x="-0.3154" y="-1" relative="1" as="geometry">
            <mxPoint x="13" y="-1" as="offset" />
          </mxGeometry>
        </mxCell>
        <mxCell id="SICG4Mnr6VeIpaEl5emT-26" value="" style="shape=rhombus;perimeter=rhombusPerimeter;whiteSpace=wrap;html=1;align=center;" vertex="1" parent="1">
          <mxGeometry x="339" y="480" width="30" height="20" as="geometry" />
        </mxCell>
        <mxCell id="SICG4Mnr6VeIpaEl5emT-27" style="edgeStyle=orthogonalEdgeStyle;rounded=0;orthogonalLoop=1;jettySize=auto;html=1;exitX=0.5;exitY=1;exitDx=0;exitDy=0;" edge="1" parent="1" source="SICG4Mnr6VeIpaEl5emT-28" target="SICG4Mnr6VeIpaEl5emT-18">
          <mxGeometry relative="1" as="geometry" />
        </mxCell>
        <mxCell id="SICG4Mnr6VeIpaEl5emT-28" value="Отмена заказа" style="rounded=1;whiteSpace=wrap;html=1;arcSize=40;fontColor=#000000;fillColor=#ffffc0;strokeColor=#ff0000;" vertex="1" parent="1">
          <mxGeometry x="480" y="820" width="120" height="40" as="geometry" />
        </mxCell>
        <mxCell id="SICG4Mnr6VeIpaEl5emT-29" style="edgeStyle=orthogonalEdgeStyle;rounded=0;orthogonalLoop=1;jettySize=auto;html=1;exitX=0.5;exitY=1;exitDx=0;exitDy=0;" edge="1" parent="1" source="SICG4Mnr6VeIpaEl5emT-5" target="SICG4Mnr6VeIpaEl5emT-5">
          <mxGeometry relative="1" as="geometry" />
        </mxCell>
        <mxCell id="SICG4Mnr6VeIpaEl5emT-30" style="edgeStyle=orthogonalEdgeStyle;rounded=0;orthogonalLoop=1;jettySize=auto;html=1;exitX=0.5;exitY=1;exitDx=0;exitDy=0;" edge="1" parent="1" source="SICG4Mnr6VeIpaEl5emT-31">
          <mxGeometry relative="1" as="geometry">
            <mxPoint x="540" y="560" as="targetPoint" />
          </mxGeometry>
        </mxCell>
        <mxCell id="SICG4Mnr6VeIpaEl5emT-31" value="Выписать чек" style="rounded=1;whiteSpace=wrap;html=1;arcSize=40;fontColor=#000000;fillColor=#ffffc0;strokeColor=#ff0000;" vertex="1" parent="1">
          <mxGeometry x="480" y="470" width="120" height="40" as="geometry" />
        </mxCell>
        <mxCell id="SICG4Mnr6VeIpaEl5emT-51" style="edgeStyle=orthogonalEdgeStyle;rounded=0;orthogonalLoop=1;jettySize=auto;html=1;exitX=1;exitY=0.5;exitDx=0;exitDy=0;entryX=0;entryY=0.5;entryDx=0;entryDy=0;" edge="1" parent="1" source="SICG4Mnr6VeIpaEl5emT-33" target="SICG4Mnr6VeIpaEl5emT-50">
          <mxGeometry relative="1" as="geometry" />
        </mxCell>
        <mxCell id="SICG4Mnr6VeIpaEl5emT-33" value="Сборка" style="rounded=1;whiteSpace=wrap;html=1;arcSize=40;fontColor=#000000;fillColor=#ffffc0;strokeColor=#ff0000;" vertex="1" parent="1">
          <mxGeometry x="480" y="560" width="120" height="40" as="geometry" />
        </mxCell>
        <mxCell id="SICG4Mnr6VeIpaEl5emT-53" style="edgeStyle=orthogonalEdgeStyle;rounded=0;orthogonalLoop=1;jettySize=auto;html=1;exitX=0.75;exitY=1;exitDx=0;exitDy=0;entryX=0;entryY=0.5;entryDx=0;entryDy=0;" edge="1" parent="1" source="SICG4Mnr6VeIpaEl5emT-39" target="SICG4Mnr6VeIpaEl5emT-46">
          <mxGeometry relative="1" as="geometry" />
        </mxCell>
        <mxCell id="SICG4Mnr6VeIpaEl5emT-39" value="Удалить какое либо число товара в системе складского учета" style="rounded=1;whiteSpace=wrap;html=1;arcSize=40;fontColor=#000000;fillColor=#ffffc0;strokeColor=#ff0000;" vertex="1" parent="1">
          <mxGeometry x="120" y="660" width="120" height="70" as="geometry" />
        </mxCell>
        <mxCell id="SICG4Mnr6VeIpaEl5emT-40" value="" style="endArrow=none;dashed=1;html=1;dashPattern=1 3;strokeWidth=2;rounded=0;" edge="1" parent="1">
          <mxGeometry width="50" height="50" relative="1" as="geometry">
            <mxPoint x="440" y="1000" as="sourcePoint" />
            <mxPoint x="440" y="40" as="targetPoint" />
          </mxGeometry>
        </mxCell>
        <mxCell id="SICG4Mnr6VeIpaEl5emT-41" value="" style="endArrow=none;dashed=1;html=1;dashPattern=1 3;strokeWidth=2;rounded=0;" edge="1" parent="1">
          <mxGeometry width="50" height="50" relative="1" as="geometry">
            <mxPoint x="270" y="1000" as="sourcePoint" />
            <mxPoint x="270" y="40" as="targetPoint" />
          </mxGeometry>
        </mxCell>
        <mxCell id="SICG4Mnr6VeIpaEl5emT-42" value="" style="endArrow=none;dashed=1;html=1;dashPattern=1 3;strokeWidth=2;rounded=0;" edge="1" parent="1">
          <mxGeometry width="50" height="50" relative="1" as="geometry">
            <mxPoint x="90" y="1000" as="sourcePoint" />
            <mxPoint x="90" y="40" as="targetPoint" />
          </mxGeometry>
        </mxCell>
        <mxCell id="SICG4Mnr6VeIpaEl5emT-44" value="" style="endArrow=none;dashed=1;html=1;dashPattern=1 3;strokeWidth=2;rounded=0;" edge="1" parent="1">
          <mxGeometry width="50" height="50" relative="1" as="geometry">
            <mxPoint x="710" y="1000" as="sourcePoint" />
            <mxPoint x="710" y="40" as="targetPoint" />
          </mxGeometry>
        </mxCell>
        <mxCell id="SICG4Mnr6VeIpaEl5emT-45" value="Транспортная организация" style="text;html=1;align=center;verticalAlign=middle;whiteSpace=wrap;rounded=0;" vertex="1" parent="1">
          <mxGeometry x="780" y="50" width="60" height="30" as="geometry" />
        </mxCell>
        <mxCell id="SICG4Mnr6VeIpaEl5emT-48" style="edgeStyle=orthogonalEdgeStyle;rounded=0;orthogonalLoop=1;jettySize=auto;html=1;exitX=0.5;exitY=1;exitDx=0;exitDy=0;entryX=0.5;entryY=0;entryDx=0;entryDy=0;" edge="1" parent="1" source="SICG4Mnr6VeIpaEl5emT-46" target="SICG4Mnr6VeIpaEl5emT-47">
          <mxGeometry relative="1" as="geometry" />
        </mxCell>
        <mxCell id="SICG4Mnr6VeIpaEl5emT-46" value="Доставка" style="rounded=1;whiteSpace=wrap;html=1;arcSize=40;fontColor=#000000;fillColor=#ffffc0;strokeColor=#ff0000;" vertex="1" parent="1">
          <mxGeometry x="750" y="770" width="120" height="40" as="geometry" />
        </mxCell>
        <mxCell id="SICG4Mnr6VeIpaEl5emT-54" style="edgeStyle=orthogonalEdgeStyle;rounded=0;orthogonalLoop=1;jettySize=auto;html=1;exitX=0.5;exitY=1;exitDx=0;exitDy=0;entryX=1;entryY=0;entryDx=0;entryDy=0;" edge="1" parent="1" source="SICG4Mnr6VeIpaEl5emT-47" target="SICG4Mnr6VeIpaEl5emT-18">
          <mxGeometry relative="1" as="geometry" />
        </mxCell>
        <mxCell id="SICG4Mnr6VeIpaEl5emT-47" value="Отгрузка" style="rounded=1;whiteSpace=wrap;html=1;arcSize=40;fontColor=#000000;fillColor=#ffffc0;strokeColor=#ff0000;" vertex="1" parent="1">
          <mxGeometry x="750" y="840" width="120" height="40" as="geometry" />
        </mxCell>
        <mxCell id="SICG4Mnr6VeIpaEl5emT-52" style="edgeStyle=orthogonalEdgeStyle;rounded=0;orthogonalLoop=1;jettySize=auto;html=1;exitX=0.5;exitY=1;exitDx=0;exitDy=0;entryX=1;entryY=0.5;entryDx=0;entryDy=0;" edge="1" parent="1" source="SICG4Mnr6VeIpaEl5emT-50" target="SICG4Mnr6VeIpaEl5emT-39">
          <mxGeometry relative="1" as="geometry" />
        </mxCell>
        <mxCell id="SICG4Mnr6VeIpaEl5emT-50" value="Загрузить товар" style="rounded=1;whiteSpace=wrap;html=1;arcSize=40;fontColor=#000000;fillColor=#ffffc0;strokeColor=#ff0000;" vertex="1" parent="1">
          <mxGeometry x="750" y="560" width="120" height="40" as="geometry" />
        </mxCell>
      </root>
    </mxGraphModel>
  </diagram>
</mxfile>
